:FULLY-SPECIFIED
:FORCE-ALL-JOINTS-BE-3DOF
:DEGREES
611
root 5.62768 16.6713 -3.76132 0.0765133 52.7149 -8.03891
lfemur -17.8434 24.1107 -21.9443
ltibia 40.2996 0 0
lfoot -32.5266 24.457 0
ltoes 18.034 0 0
rfemur -52.7288 -17.8179 27.6775
rtibia 61.7936 0 0
rfoot 7.96109 28.7257 0
rtoes -3.82869 0 0
lowerback 3.47873 -3.26713 -4.88735
upperback 0.0649114 -4.53173 1.14753
thorax -1.40812 -2.22917 4.10975
lowerneck -8.35447 -9.4375 -0.55471
upperneck 14.836 -13.4511 4.60271
head 6.23852 -6.18829 0.461583
lclavicle 9.15415e-14 8.51934e-15 0
lhumerus -22.5511 -42.1908 93.1446
lradius 56.8956 0 0
lwrist 20.6878 0 0
lhand -10.5904 0.285971 0
lfingers 7.12502 0 0
lthumb 15.4151 29.6911 0
rclavicle 9.15415e-14 8.51934e-15 0
rhumerus 21.4498 4.01825 -71.9631
rradius 118.182 0 0
rwrist -58.0705 0 0
rhand -27.0667 -22.5662 0
rfingers 7.12502 0 0
rthumb -0.484557 -772.544 0
612
root 5.63522 16.6792 -3.75144 0.54655 51.4156 -7.86034
lfemur -17.6091 23.715 -21.9268
ltibia 39.8931 0 0
lfoot -32.5469 23.8435 0
ltoes 18.5075 0 0
rfemur -52.4087 -17.8315 27.2301
rtibia 61.8361 0 0
rfoot 7.8488 27.3174 0
rtoes -3.82593 0 0
lowerback 3.24636 -3.26859 -4.78675
upperback -0.0660311 -4.52345 1.21013
thorax -1.41622 -2.2234 4.10795
lowerneck -8.45285 -9.34304 -0.478164
upperneck 14.7799 -13.3246 4.5416
head 6.22619 -6.12841 0.439042
lclavicle 8.59767e-14 6.70188e-15 0
lhumerus -22.8385 -42.9602 93.8548
lradius 57.5906 0 0
lwrist 20.7085 0 0
lhand -10.5494 0.229733 0
lfingers 7.12502 0 0
lthumb 15.4545 29.6318 0
rclavicle 8.59767e-14 6.70188e-15 0
rhumerus 20.1367 4.14373 -71.5253
rradius 117.036 0 0
rwrist -57.3791 0 0
rhand -27.2204 -22.9434 0
rfingers 7.12502 0 0
rthumb -0.632933 -772.92 0
613
root 5.64276 16.687 -3.74157 1.01659 50.1162 -7.68176
lfemur -17.3748 23.3192 -21.9092
ltibia 39.4867 0 0
lfoot -32.5672 23.2299 0
ltoes 18.981 0 0
rfemur -52.0886 -17.8452 26.7828
rtibia 61.8787 0 0
rfoot 7.73652 25.909 0
rtoes -3.82317 0 0
lowerback 3.01398 -3.27004 -4.68616
upperback -0.196974 -4.51517 1.27273
thorax -1.42431 -2.21762 4.10616
lowerneck -8.55123 -9.24858 -0.401617
upperneck 14.7238 -13.1981 4.4805
head 6.21386 -6.06854 0.4165
lclavicle 8.04119e-14 4.88441e-15 0
lhumerus -23.1258 -43.7297 94.5651
lradius 58.2856 0 0
lwrist 20.7293 0 0
lhand -10.5085 0.173494 0
lfingers 7.12502 0 0
lthumb 15.494 29.5724 0
rclavicle 8.04119e-14 4.88441e-15 0
rhumerus 18.8236 4.26921 -71.0876
rradius 115.89 0 0
rwrist -56.6876 0 0
rhand -27.374 -23.3207 0
rfingers 7.12502 0 0
rthumb -0.781309 -773.296 0
614
root 5.65029 16.6948 -3.73169 1.48662 48.8169 -7.50319
lfemur -17.1405 22.9234 -21.8917
ltibia 39.0802 0 0
lfoot -32.5875 22.6164 0
ltoes 19.4546 0 0
rfemur -51.7684 -17.8589 26.3354
rtibia 61.9212 0 0
rfoot 7.62423 24.5007 0
rtoes -3.8204 0 0
lowerback 2.7816 -3.2715 -4.58556
upperback -0.327916 -4.50689 1.33533
thorax -1.43241 -2.21184 4.10437
lowerneck -8.64962 -9.15413 -0.325071
upperneck 14.6677 -13.0716 4.41939
head 6.20153 -6.00866 0.393959
lclavicle 7.48472e-14 3.06695e-15 0
lhumerus -23.4132 -44.4991 95.2753
lradius 58.9807 0 0
lwrist 20.75 0 0
lhand -10.4675 0.117256 0
lfingers 7.12502 0 0
lthumb 15.5334 29.5131 0
rclavicle 7.48472e-14 3.06695e-15 0
rhumerus 17.5104 4.39469 -70.6498
rradius 114.744 0 0
rwrist -55.9962 0 0
rhand -27.5276 -23.698 0
rfingers 7.12502 0 0
rthumb -0.929686 -773.672 0
